<svg xmlns="http://www.w3.org/2000/svg" viewBox="0 0 120 120" role="img" aria-label="arm">
  <defs><radialGradient id="bg" cx="35%" cy="22%" r="85%"><stop offset="0" stop-color="#fff"/><stop offset="1" stop-color="#eaf6e8"/></radialGradient><linearGradient id="skin" x1="68" y1="50" x2="99" y2="94"><stop offset="0" stop-color="#ffe0ce"/><stop offset="1" stop-color="#f6b28f"/></linearGradient></defs>
  <circle cx="60" cy="60" r="54" fill="url(#bg)"/>
  <circle cx="56" cy="31" r="12" fill="#ffd6c4" stroke="#ffb1cf" stroke-width="3"/>
  <path d="M39 49h34c7 0 12 5 12 12v29H27V61c0-7 5-12 12-12Z" fill="#7fa97f" stroke="#5c8c61" stroke-width="4"/>
  <path d="M78 61c15 7 22 18 18 31-3 9-12 12-20 7-7-5-7-14 0-20l7-7" fill="none" stroke="#ff4f93" stroke-width="11" stroke-linecap="round" stroke-linejoin="round"/>
  <circle cx="78" cy="95" r="7" fill="url(#skin)" stroke="#ff4f93" stroke-width="4"/>
  <path d="M81 61c7 4 12 8 16 14" fill="none" stroke="#fff" stroke-width="3" stroke-linecap="round" opacity=".48"/>
  <circle cx="60" cy="60" r="53" fill="none" stroke="#ff8fbd" stroke-width="3"/>
</svg>
